<svg width="152" height="166" viewBox="0 0 152 166" fill="none" xmlns="http://www.w3.org/2000/svg">
<path d="M61.5 22L66.1696 22.1668C81.1165 22.7006 95.2494 29.1088 105.5 40H106V15L92.371 10.0138C74.8414 3.6005 55.4852 4.39145 38.5373 12.2136L37.8412 12.5348C34.2883 14.1746 30.8973 16.1448 27.7131 18.4192C23.9163 21.1312 20.4077 24.2913 17.3079 27.7786C15.119 30.2411 13.1069 32.8933 11.3289 35.667L11.1139 36.0023C4.81049 45.8356 1.13978 57.1238 0.453896 68.7838L0.438874 69.0391C0.147141 73.9986 0.390798 78.9751 1.16563 83.8823L1.83688 88.1336C2.60822 93.0187 4.08382 97.7662 6.21765 102.228C7.73517 105.401 9.57586 108.409 11.7105 111.204L12.5535 112.308C23.3676 126.469 39.5511 135.535 57.2757 137.359L63.5 138L73.4122 137.459C84.9135 136.832 96.0179 133.039 105.5 126.5L106.5 102.5C98.9741 115.67 85.5241 124.369 70.4257 125.83L63.5 126.5C53.5104 126.5 43.8632 122.86 36.3639 116.26L35.5 115.5L34.9633 114.963C28.193 108.193 23.9475 99.3067 22.9346 89.7856L22.5446 86.1189C22.1902 82.7878 22.8731 79.4284 24.5 76.5H72.9038C75.2284 76.5 77.4804 77.3099 79.2726 78.7904L88 86H89V56H88.5L80.685 61.9543C78.9433 63.2813 76.8142 64 74.6245 64H25L23.9204 61.3009C23.3109 59.7773 22.956 58.164 22.8698 56.5253C22.629 51.9512 23.792 47.4129 26.2029 43.5184L29 39C35.5268 28.4328 47.061 22 59.4812 22H61.5Z" fill="white"/>
<path d="M122 45H44.5V159.5L37.5 165.5H122.5L125.539 150.306C126.843 143.785 127.5 137.15 127.5 130.5L125.757 135.479C122.464 144.889 114.772 152.091 105.166 154.759C103.397 155.251 101.569 155.5 99.7329 155.5H62.5L61.9552 155.364C61.1 155.15 60.5 154.382 60.5 153.5V107.5C60.8148 106.556 61.5557 105.815 62.5 105.5H86.0909C87.0283 105.5 87.9638 105.414 88.8855 105.243L89.7673 105.08C96.7849 103.781 102.689 99.0598 105.5 92.5C106.459 86.4235 104.935 80.2165 101.269 75.276L95.5 67.5V81.7931C95.5 84.2208 94.8554 86.605 93.6322 88.702C92.5698 90.5232 90.9732 91.9739 89.0588 92.8575L87.5627 93.548C86.2038 94.1752 84.7249 94.5 83.2282 94.5H62.5C61.8597 94.1799 61.3728 93.6185 61.1464 92.9393L61 92.5V53C61 52.1716 61.6716 51.5 62.5 51.5H99.8268C102.256 51.5 104.665 51.9369 106.939 52.7898C114.941 55.7902 121.308 62.0212 124.482 69.9553L125.5 72.5L128.347 67.3756C129.759 64.8338 130.5 61.9741 130.5 59.0664C130.5 57.3723 130.165 55.6948 129.513 54.131L129.311 53.6463C128.447 51.5737 127.143 49.714 125.487 48.1968L122 45Z" fill="#FFEDD4"/>
<path d="M95.5 67V80.9024C95.5 83.586 94.7875 86.2214 93.4353 88.5394C92.493 90.1548 91.1667 91.5128 89.574 92.4929L85.5 95L87.5 105L90.3768 104.589C97.2408 103.608 103.032 98.9794 105.5 92.5C106.46 86.0984 104.832 79.5778 100.975 74.3792L95.5 67Z" fill="url(#paint0_linear_1_17)"/>
<path d="M130.186 50.2181L125.361 42.8758C122.904 39.136 122.15 34.5282 123.289 30.2005C123.759 28.4141 124.54 26.7241 125.595 25.2076L132 16L131.308 23.8433C130.795 29.6555 132.846 35.4019 136.923 39.5759L144.41 47.2417C148.588 51.5183 149.356 58.074 146.28 63.2003C144.801 65.6654 142.555 67.578 139.886 68.6457L129 73L130.858 69.6962C132.584 66.6276 133.411 63.1347 133.244 59.6179C133.084 56.2674 132.028 53.0213 130.186 50.2181Z" fill="#FF6900"/>
<path d="M45 45V51L38 45H45Z" fill="#FFEDD4"/>
<defs>
<linearGradient id="paint0_linear_1_17" x1="94" y1="116" x2="116.5" y2="82" gradientUnits="userSpaceOnUse">
<stop offset="0.335001" stop-color="#FFEDD4"/>
<stop offset="0.793253" stop-color="#FF8904"/>
</linearGradient>
</defs>
</svg>
